<svg width="24" height="24" viewBox="0 0 24 24" fill="none" xmlns="http://www.w3.org/2000/svg">
<path d="M20 14C19.908 14.064 18 16.083 18 17.5C18 18.994 18.949 19.948 20 20C20.906 20.044 22 19.109 22 17.5C22 16 20.092 14.064 20 14ZM9.586 20C9.964 20.378 10.466 20.586 11 20.586C11.534 20.586 12.036 20.378 12.414 20L19.414 13L18.707 12.293L11 4.58597L8.707 2.29297L7.293 3.70697L9.586 5.99997L4 11.586C3.622 11.964 3.414 12.466 3.414 13C3.414 13.534 3.622 14.036 4 14.414L9.586 20ZM11 7.41397L16.586 13H5.414L11 7.41397Z" fill="#A3A3A3"/>
</svg>
